{
    "asset" : {
        "generator" : "Khronos glTF Blender I/O v1.3.48",
        "version" : "2.0"
    },
    "scene" : 0,
    "scenes" : [
        {
            "name" : "Scene",
            "nodes" : [
                0
            ]
        }
    ],
    "nodes" : [
        {
            "mesh" : 0,
            "name" : "DualMesh"
        }
    ],
    "meshes" : [
        {
            "name" : "Icosphere.002",
            "primitives" : [
                {
                    "attributes" : {
                        "POSITION" : 0,
                        "NORMAL" : 1
                    },
                    "indices" : 2
                }
            ]
        }
    ],
    "accessors" : [
        {
            "bufferView" : 0,
            "componentType" : 5126,
            "count" : 48933,
            "max" : [
                1.7143760919570923,
                1.7042946815490723,
                1.725961685180664
            ],
            "min" : [
                -1.7143759727478027,
                -1.7042948007583618,
                -1.7259619235992432
            ],
            "type" : "VEC3"
        },
        {
            "bufferView" : 1,
            "componentType" : 5126,
            "count" : 48933,
            "type" : "VEC3"
        },
        {
            "bufferView" : 2,
            "componentType" : 5123,
            "count" : 89280,
            "type" : "SCALAR"
        }
    ],
    "bufferViews" : [
        {
            "buffer" : 0,
            "byteLength" : 587196,
            "byteOffset" : 0
        },
        {
            "buffer" : 0,
            "byteLength" : 587196,
            "byteOffset" : 587196
        },
        {
            "buffer" : 0,
            "byteLength" : 178560,
            "byteOffset" : 1174392
        }
    ],
    "buffers" : [
        {
            "byteLength" : 1352952,
            "uri" : "data:application/octet-stream;base64,"
        }
    ]
}
