{
    "asset" : {
        "generator" : "Khronos glTF Blender I/O v1.3.48",
        "version" : "2.0"
    },
    "scene" : 0,
    "scenes" : [
        {
            "name" : "Scene",
            "nodes" : [
                0
            ]
        }
    ],
    "nodes" : [
        {
            "mesh" : 0,
            "name" : "DualMesh.001"
        }
    ],
    "meshes" : [
        {
            "name" : "Icosphere.001",
            "primitives" : [
                {
                    "attributes" : {
                        "POSITION" : 0,
                        "NORMAL" : 1
                    },
                    "indices" : 2
                }
            ]
        }
    ],
    "accessors" : [
        {
            "bufferView" : 0,
            "componentType" : 5126,
            "count" : 2324,
            "max" : [
                1.3169327974319458,
                1.3732256889343262,
                1.3847085237503052
            ],
            "min" : [
                -1.3169327974319458,
                -1.3732256889343262,
                -1.3847085237503052
            ],
            "type" : "VEC3"
        },
        {
            "bufferView" : 1,
            "componentType" : 5126,
            "count" : 2324,
            "type" : "VEC3"
        },
        {
            "bufferView" : 2,
            "componentType" : 5123,
            "count" : 14880,
            "type" : "SCALAR"
        }
    ],
    "bufferViews" : [
        {
            "buffer" : 0,
            "byteLength" : 27888,
            "byteOffset" : 0
        },
        {
            "buffer" : 0,
            "byteLength" : 27888,
            "byteOffset" : 27888
        },
        {
            "buffer" : 0,
            "byteLength" : 29760,
            "byteOffset" : 55776
        }
    ],
    "buffers" : [
        {
            "byteLength" : 85536,
            "uri" : "data:application/octet-stream;base64,"
        }
    ]
}
